<?xml version="1.0" encoding="UTF-8" standalone="no"?>
<!-- Created with Inkscape (http://www.inkscape.org/) -->

<svg
   xmlns:dc="http://purl.org/dc/elements/1.1/"
   xmlns:cc="http://creativecommons.org/ns#"
   xmlns:rdf="http://www.w3.org/1999/02/22-rdf-syntax-ns#"
   xmlns:svg="http://www.w3.org/2000/svg"
   xmlns="http://www.w3.org/2000/svg"
   xmlns:sodipodi="http://sodipodi.sourceforge.net/DTD/sodipodi-0.dtd"
   xmlns:inkscape="http://www.inkscape.org/namespaces/inkscape"
   width="29.437727mm"
   height="21.765837mm"
   viewBox="0 0 29.437727 21.765837"
   version="1.1"
   id="svg8"
   inkscape:version="0.92.1 r"
   sodipodi:docname="logo.svg"
   inkscape:export-filename="/home/tapia/git_repos/Meine/Sajou/docs/logo.png"
   inkscape:export-xdpi="300"
   inkscape:export-ydpi="300">
  <defs
     id="defs2">
    <inkscape:path-effect
       effect="powerstroke"
       id="path-effect17368"
       is_visible="true"
       offset_points="0,0.38239727"
       sort_points="true"
       interpolator_type="CubicBezierJohan"
       interpolator_beta="0.2"
       start_linecap_type="zerowidth"
       linejoin_type="extrp_arc"
       miter_limit="4"
       end_linecap_type="zerowidth" />
    <marker
       inkscape:isstock="true"
       style="overflow:visible"
       id="marker17182"
       refX="0"
       refY="0"
       orient="auto"
       inkscape:stockid="Arrow1Mend">
      <path
         inkscape:connector-curvature="0"
         transform="matrix(-0.4,0,0,-0.4,-4,0)"
         style="fill:#aad400;fill-opacity:1;fill-rule:evenodd;stroke:#aad400;stroke-width:1.00000003pt;stroke-opacity:1"
         d="M 0,0 5,-5 -12.5,0 5,5 Z"
         id="path17180" />
    </marker>
    <marker
       inkscape:stockid="DotM"
       orient="auto"
       refY="0.0"
       refX="0.0"
       id="DotM"
       style="overflow:visible"
       inkscape:isstock="true">
      <path
         id="path4614"
         d="M -2.5,-1.0 C -2.5,1.7600000 -4.7400000,4.0 -7.5,4.0 C -10.260000,4.0 -12.5,1.7600000 -12.5,-1.0 C -12.5,-3.7600000 -10.260000,-6.0 -7.5,-6.0 C -4.7400000,-6.0 -2.5,-3.7600000 -2.5,-1.0 z "
         style="fill-rule:evenodd;stroke:#aad400;stroke-width:1pt;stroke-opacity:1;fill:#ddff55;fill-opacity:1"
         transform="scale(0.4) translate(7.4, 1)" />
    </marker>
    <marker
       inkscape:isstock="true"
       style="overflow:visible"
       id="marker7728"
       refX="0"
       refY="0"
       orient="auto"
       inkscape:stockid="Arrow1Mend">
      <path
         transform="matrix(-0.4,0,0,-0.4,-4,0)"
         style="fill:#aad400;fill-opacity:1;fill-rule:evenodd;stroke:#aad400;stroke-width:1.00000003pt;stroke-opacity:1"
         d="M 0,0 5,-5 -12.5,0 5,5 Z"
         id="path7726"
         inkscape:connector-curvature="0" />
    </marker>
    <marker
       inkscape:isstock="true"
       style="overflow:visible"
       id="marker7616"
       refX="0"
       refY="0"
       orient="auto"
       inkscape:stockid="Arrow1Mend">
      <path
         transform="matrix(-0.4,0,0,-0.4,-4,0)"
         style="fill:#aad400;fill-opacity:1;fill-rule:evenodd;stroke:#aad400;stroke-width:1.00000003pt;stroke-opacity:1"
         d="M 0,0 5,-5 -12.5,0 5,5 Z"
         id="path7614"
         inkscape:connector-curvature="0" />
    </marker>
    <marker
       inkscape:isstock="true"
       style="overflow:visible"
       id="marker7510"
       refX="0"
       refY="0"
       orient="auto"
       inkscape:stockid="Arrow1Mend">
      <path
         transform="matrix(-0.4,0,0,-0.4,-4,0)"
         style="fill:#aad400;fill-opacity:1;fill-rule:evenodd;stroke:#aad400;stroke-width:1.00000003pt;stroke-opacity:1"
         d="M 0,0 5,-5 -12.5,0 5,5 Z"
         id="path7508"
         inkscape:connector-curvature="0" />
    </marker>
    <marker
       inkscape:isstock="true"
       style="overflow:visible"
       id="marker7410"
       refX="0"
       refY="0"
       orient="auto"
       inkscape:stockid="Arrow1Mend">
      <path
         transform="matrix(-0.4,0,0,-0.4,-4,0)"
         style="fill:#aad400;fill-opacity:1;fill-rule:evenodd;stroke:#aad400;stroke-width:1.00000003pt;stroke-opacity:1"
         d="M 0,0 5,-5 -12.5,0 5,5 Z"
         id="path7408"
         inkscape:connector-curvature="0" />
    </marker>
    <marker
       inkscape:isstock="true"
       style="overflow:visible"
       id="marker7400"
       refX="0"
       refY="0"
       orient="auto"
       inkscape:stockid="Arrow1Mend">
      <path
         transform="matrix(-0.4,0,0,-0.4,-4,0)"
         style="fill:#aad400;fill-opacity:1;fill-rule:evenodd;stroke:#aad400;stroke-width:1.00000003pt;stroke-opacity:1"
         d="M 0,0 5,-5 -12.5,0 5,5 Z"
         id="path7398"
         inkscape:connector-curvature="0" />
    </marker>
    <marker
       inkscape:stockid="Arrow1Mend"
       orient="auto"
       refY="0"
       refX="0"
       id="Arrow1Mend"
       style="overflow:visible"
       inkscape:isstock="true"
       inkscape:collect="always">
      <path
         id="path4603"
         d="M 0,0 5,-5 -12.5,0 5,5 Z"
         style="fill:#aad400;fill-opacity:1;fill-rule:evenodd;stroke:#aad400;stroke-width:1.00000003pt;stroke-opacity:1"
         transform="matrix(-0.4,0,0,-0.4,-4,0)"
         inkscape:connector-curvature="0" />
    </marker>
    <marker
       inkscape:isstock="true"
       style="overflow:visible"
       id="marker7208"
       refX="0"
       refY="0"
       orient="auto"
       inkscape:stockid="Arrow1Lend">
      <path
         transform="matrix(-0.8,0,0,-0.8,-10,0)"
         style="fill:#000000;fill-opacity:1;fill-rule:evenodd;stroke:#000000;stroke-width:1.00000003pt;stroke-opacity:1"
         d="M 0,0 5,-5 -12.5,0 5,5 Z"
         id="path7206"
         inkscape:connector-curvature="0" />
    </marker>
    <marker
       inkscape:isstock="true"
       style="overflow:visible"
       id="marker7126"
       refX="0"
       refY="0"
       orient="auto"
       inkscape:stockid="Arrow1Lend">
      <path
         transform="matrix(-0.8,0,0,-0.8,-10,0)"
         style="fill:#000000;fill-opacity:1;fill-rule:evenodd;stroke:#000000;stroke-width:1.00000003pt;stroke-opacity:1"
         d="M 0,0 5,-5 -12.5,0 5,5 Z"
         id="path7124"
         inkscape:connector-curvature="0" />
    </marker>
    <marker
       inkscape:isstock="true"
       style="overflow:visible"
       id="marker7050"
       refX="0"
       refY="0"
       orient="auto"
       inkscape:stockid="Arrow1Lend">
      <path
         transform="matrix(-0.8,0,0,-0.8,-10,0)"
         style="fill:#000000;fill-opacity:1;fill-rule:evenodd;stroke:#000000;stroke-width:1.00000003pt;stroke-opacity:1"
         d="M 0,0 5,-5 -12.5,0 5,5 Z"
         id="path7048"
         inkscape:connector-curvature="0" />
    </marker>
    <marker
       inkscape:isstock="true"
       style="overflow:visible"
       id="marker6980"
       refX="0"
       refY="0"
       orient="auto"
       inkscape:stockid="Arrow1Lend">
      <path
         transform="matrix(-0.8,0,0,-0.8,-10,0)"
         style="fill:#000000;fill-opacity:1;fill-rule:evenodd;stroke:#000000;stroke-width:1.00000003pt;stroke-opacity:1"
         d="M 0,0 5,-5 -12.5,0 5,5 Z"
         id="path6978"
         inkscape:connector-curvature="0" />
    </marker>
    <marker
       inkscape:isstock="true"
       style="overflow:visible"
       id="marker6916"
       refX="0"
       refY="0"
       orient="auto"
       inkscape:stockid="Arrow1Lend">
      <path
         transform="matrix(-0.8,0,0,-0.8,-10,0)"
         style="fill:#000000;fill-opacity:1;fill-rule:evenodd;stroke:#000000;stroke-width:1.00000003pt;stroke-opacity:1"
         d="M 0,0 5,-5 -12.5,0 5,5 Z"
         id="path6914"
         inkscape:connector-curvature="0" />
    </marker>
    <marker
       inkscape:stockid="TriangleInS"
       orient="auto"
       refY="0"
       refX="0"
       id="TriangleInS"
       style="overflow:visible"
       inkscape:isstock="true">
      <path
         id="path4733"
         d="M 5.77,0 -2.88,5 V -5 Z"
         style="fill:#88aa00;fill-opacity:1;fill-rule:evenodd;stroke:#88aa00;stroke-width:1.00000003pt;stroke-opacity:1"
         transform="scale(-0.2)"
         inkscape:connector-curvature="0" />
    </marker>
    <marker
       inkscape:stockid="Arrow1Sstart"
       orient="auto"
       refY="0"
       refX="0"
       id="Arrow1Sstart"
       style="overflow:visible"
       inkscape:isstock="true">
      <path
         id="path4606"
         d="M 0,0 5,-5 -12.5,0 5,5 Z"
         style="fill:#88aa00;fill-opacity:1;fill-rule:evenodd;stroke:#88aa00;stroke-width:1.00000003pt;stroke-opacity:1"
         transform="matrix(0.2,0,0,0.2,1.2,0)"
         inkscape:connector-curvature="0" />
    </marker>
    <marker
       inkscape:stockid="TriangleInL"
       orient="auto"
       refY="0"
       refX="0"
       id="TriangleInL"
       style="overflow:visible"
       inkscape:isstock="true">
      <path
         id="path4727"
         d="M 5.77,0 -2.88,5 V -5 Z"
         style="fill:#88aa00;fill-opacity:1;fill-rule:evenodd;stroke:#88aa00;stroke-width:1.00000003pt;stroke-opacity:1"
         transform="scale(-0.8)"
         inkscape:connector-curvature="0" />
    </marker>
    <marker
       inkscape:stockid="TriangleInM"
       orient="auto"
       refY="0"
       refX="0"
       id="TriangleInM"
       style="overflow:visible"
       inkscape:isstock="true">
      <path
         id="path4730"
         d="M 5.77,0 -2.88,5 V -5 Z"
         style="fill:#88aa00;fill-opacity:1;fill-rule:evenodd;stroke:#88aa00;stroke-width:1.00000003pt;stroke-opacity:1"
         transform="scale(-0.4)"
         inkscape:connector-curvature="0" />
    </marker>
    <marker
       inkscape:stockid="Arrow2Lstart"
       orient="auto"
       refY="0"
       refX="0"
       id="Arrow2Lstart"
       style="overflow:visible"
       inkscape:isstock="true">
      <path
         id="path4612"
         style="fill:#88aa00;fill-opacity:1;fill-rule:evenodd;stroke:#88aa00;stroke-width:0.625;stroke-linejoin:round;stroke-opacity:1"
         d="M 8.7185878,4.0337352 -2.2072895,0.01601326 8.7185884,-4.0017078 c -1.7454984,2.3720609 -1.7354408,5.6174519 -6e-7,8.035443 z"
         transform="matrix(1.1,0,0,1.1,1.1,0)"
         inkscape:connector-curvature="0" />
    </marker>
    <marker
       inkscape:stockid="Arrow1Mstart"
       orient="auto"
       refY="0"
       refX="0"
       id="Arrow1Mstart"
       style="overflow:visible"
       inkscape:isstock="true">
      <path
         id="path4600"
         d="M 0,0 5,-5 -12.5,0 5,5 Z"
         style="fill:#88aa00;fill-opacity:1;fill-rule:evenodd;stroke:#88aa00;stroke-width:1.00000003pt;stroke-opacity:1"
         transform="matrix(0.4,0,0,0.4,4,0)"
         inkscape:connector-curvature="0" />
    </marker>
    <marker
       inkscape:stockid="Arrow1Lstart"
       orient="auto"
       refY="0"
       refX="0"
       id="Arrow1Lstart"
       style="overflow:visible"
       inkscape:isstock="true">
      <path
         id="path4594"
         d="M 0,0 5,-5 -12.5,0 5,5 Z"
         style="fill:#aad400;fill-opacity:1;fill-rule:evenodd;stroke:#aad400;stroke-width:1.00000003pt;stroke-opacity:1"
         transform="matrix(0.8,0,0,0.8,10,0)"
         inkscape:connector-curvature="0" />
    </marker>
    <inkscape:path-effect
       effect="powerstroke"
       id="path-effect4491"
       is_visible="true"
       offset_points="0,0.13229166"
       sort_points="true"
       interpolator_type="CubicBezierJohan"
       interpolator_beta="0.2"
       start_linecap_type="zerowidth"
       linejoin_type="extrp_arc"
       miter_limit="4"
       end_linecap_type="zerowidth" />
    <marker
       inkscape:isstock="true"
       style="overflow:visible"
       id="marker7400-3"
       refX="0"
       refY="0"
       orient="auto"
       inkscape:stockid="Arrow1Mend">
      <path
         transform="matrix(-0.4,0,0,-0.4,-4,0)"
         style="fill:#aad400;fill-opacity:1;fill-rule:evenodd;stroke:#aad400;stroke-width:1.00000003pt;stroke-opacity:1"
         d="M 0,0 5,-5 -12.5,0 5,5 Z"
         id="path7398-6"
         inkscape:connector-curvature="0" />
    </marker>
    <marker
       inkscape:isstock="true"
       style="overflow:visible"
       id="marker7616-3"
       refX="0"
       refY="0"
       orient="auto"
       inkscape:stockid="Arrow1Mend">
      <path
         transform="matrix(-0.4,0,0,-0.4,-4,0)"
         style="fill:#aad400;fill-opacity:1;fill-rule:evenodd;stroke:#aad400;stroke-width:1.00000003pt;stroke-opacity:1"
         d="M 0,0 5,-5 -12.5,0 5,5 Z"
         id="path7614-6"
         inkscape:connector-curvature="0" />
    </marker>
    <marker
       inkscape:stockid="DotM"
       orient="auto"
       refY="0"
       refX="0"
       id="DotM-5"
       style="overflow:visible"
       inkscape:isstock="true">
      <path
         inkscape:connector-curvature="0"
         id="path4614-3"
         d="m -2.5,-1 c 0,2.76 -2.24,5 -5,5 -2.76,0 -5,-2.24 -5,-5 0,-2.76 2.24,-5 5,-5 2.76,0 5,2.24 5,5 z"
         style="fill:#ff0000;fill-opacity:1;fill-rule:evenodd;stroke:#000000;stroke-width:1.00000003pt;stroke-opacity:1"
         transform="matrix(0.4,0,0,0.4,2.96,0.4)" />
    </marker>
  </defs>
  <sodipodi:namedview
     id="base"
     pagecolor="#ffffff"
     bordercolor="#666666"
     borderopacity="1.0"
     inkscape:pageopacity="0.0"
     inkscape:pageshadow="2"
     inkscape:zoom="11.313709"
     inkscape:cx="63.260159"
     inkscape:cy="36.476254"
     inkscape:document-units="mm"
     inkscape:current-layer="g7863"
     showgrid="false"
     inkscape:window-width="3200"
     inkscape:window-height="1690"
     inkscape:window-x="0"
     inkscape:window-y="54"
     inkscape:window-maximized="1"
     fit-margin-top="0"
     fit-margin-left="0"
     fit-margin-right="0"
     fit-margin-bottom="0" />
  <metadata
     id="metadata5">
    <rdf:RDF>
      <cc:Work
         rdf:about="">
        <dc:format>image/svg+xml</dc:format>
        <dc:type
           rdf:resource="http://purl.org/dc/dcmitype/StillImage" />
        <dc:title />
      </cc:Work>
    </rdf:RDF>
  </metadata>
  <g
     inkscape:groupmode="layer"
     id="layer3"
     inkscape:label="Ebene 2" />
  <g
     inkscape:label="Ebene 1"
     inkscape:groupmode="layer"
     id="layer1"
     transform="translate(-43.316152,-81.303206)">
    <g
       id="g7863"
       transform="translate(-1.5658673,2.9249984)"
       style="fill:#88aa00;stroke:#aad400;stroke-width:0.30000001;stroke-miterlimit:4;stroke-dasharray:none">
      <path
         sodipodi:nodetypes="cc"
         inkscape:connector-curvature="0"
         id="path6846"
         d="m 59.245667,83.375938 v 5.301114"
         style="fill:#ddff55;fill-rule:evenodd;stroke:#aad400;stroke-width:0.30000001;stroke-linecap:butt;stroke-linejoin:miter;stroke-miterlimit:4;stroke-dasharray:none;stroke-opacity:1;marker-end:url(#DotM)" />
      <path
         sodipodi:nodetypes="cc"
         inkscape:connector-curvature="0"
         id="path6838"
         d="m 46.709799,86.072229 25.0741,-5.623301"
         style="fill:#88aa00;fill-rule:evenodd;stroke:#aad400;stroke-width:0.50300002;stroke-linecap:round;stroke-linejoin:miter;stroke-miterlimit:4;stroke-dasharray:none;stroke-opacity:1" />
      <path
         sodipodi:nodetypes="cc"
         inkscape:connector-curvature="0"
         id="path6840"
         d="m 71.882423,80.414274 v 8.248604"
         style="fill:#aad400;fill-rule:evenodd;stroke:#aad400;stroke-width:0.30000001;stroke-linecap:butt;stroke-linejoin:miter;stroke-miterlimit:4;stroke-dasharray:none;stroke-opacity:1;marker-end:url(#marker7728)" />
      <path
         sodipodi:nodetypes="cc"
         inkscape:connector-curvature="0"
         id="path6842"
         d="m 67.670171,81.417734 v 7.301841"
         style="fill:#aad400;fill-rule:evenodd;stroke:#aad400;stroke-width:0.30000001;stroke-linecap:butt;stroke-linejoin:miter;stroke-miterlimit:4;stroke-dasharray:none;stroke-opacity:1;marker-end:url(#Arrow1Mend)" />
      <path
         sodipodi:nodetypes="cc"
         inkscape:connector-curvature="0"
         id="path6844"
         d="m 63.457918,82.39264 v 6.312761"
         style="fill:#aad400;fill-rule:evenodd;stroke:#aad400;stroke-width:0.30000001;stroke-linecap:butt;stroke-linejoin:miter;stroke-miterlimit:4;stroke-dasharray:none;stroke-opacity:1;marker-end:url(#marker7400)" />
      <path
         sodipodi:nodetypes="cc"
         inkscape:connector-curvature="0"
         id="path6848"
         d="m 55.033414,84.342139 v 4.349088"
         style="fill:#aad400;fill-rule:evenodd;stroke:#aad400;stroke-width:0.30000001;stroke-linecap:butt;stroke-linejoin:miter;stroke-miterlimit:4;stroke-dasharray:none;stroke-opacity:1;marker-end:url(#marker7510)" />
      <path
         sodipodi:nodetypes="ccc"
         inkscape:connector-curvature="0"
         id="path6850"
         d="m 50.821163,85.151025 v 1.333905 2.163774"
         style="fill:#aad400;fill-rule:evenodd;stroke:#aad400;stroke-width:0.30000001;stroke-linecap:butt;stroke-linejoin:miter;stroke-miterlimit:4;stroke-dasharray:none;stroke-opacity:1;marker-end:url(#marker7616)" />
      <path
         style="fill:#000000;fill-rule:nonzero;stroke:none;stroke-width:0.47807455;stroke-linecap:butt;stroke-linejoin:miter;stroke-miterlimit:4;stroke-dasharray:none;stroke-opacity:1"
         d="m 57.632272,97.16592 c -2.123876,0 -8.495504,0.388201 -10.61938,0.388201 2.123876,0 8.495504,0.388202 10.61938,0.388202 z"
         id="path17366"
         inkscape:connector-curvature="0"
         sodipodi:nodetypes="cccc" />
      <path
         sodipodi:nodetypes="cc"
         inkscape:connector-curvature="0"
         id="path6850-7"
         d="m 46.608911,86.028615 v 2.620089"
         style="fill:#aad400;fill-rule:evenodd;stroke:#aad400;stroke-width:0.30000001;stroke-linecap:butt;stroke-linejoin:miter;stroke-miterlimit:4;stroke-dasharray:none;stroke-opacity:1;marker-end:url(#marker7616-3)" />
    </g>
    <g
       aria-label="sajou"
       style="font-style:normal;font-weight:normal;font-size:10.19277px;line-height:125%;font-family:sans-serif;letter-spacing:0px;word-spacing:0px;fill:#000000;fill-opacity:1;stroke:none;stroke-width:0.26458332px;stroke-linecap:butt;stroke-linejoin:miter;stroke-opacity:1"
       id="text4548"
       transform="translate(0,1.5875)">
      <path
         d="M 49.19823,91.749713 V 92.6157 q -0.388201,-0.199077 -0.806264,-0.298616 -0.418063,-0.09954 -0.865987,-0.09954 -0.681841,0 -1.02525,0.209032 -0.338431,0.209031 -0.338431,0.627094 0,0.318524 0.24387,0.502671 0.24387,0.179169 0.980456,0.343408 l 0.313548,0.06968 q 0.97548,0.209031 1.383588,0.592255 0.413086,0.378248 0.413086,1.060088 0,0.776402 -0.61714,1.229304 -0.612163,0.452901 -1.687182,0.452901 -0.447925,0 -0.935665,-0.08958 -0.482763,-0.08461 -1.020272,-0.2588 v -0.945619 q 0.507648,0.263778 1.000365,0.398155 0.492717,0.129401 0.97548,0.129401 0.647002,0 0.995387,-0.218986 0.348386,-0.223962 0.348386,-0.627094 0,-0.37327 -0.253824,-0.572348 -0.248847,-0.199077 -1.099903,-0.383224 l -0.318524,-0.07465 q -0.851057,-0.17917 -1.229304,-0.547463 -0.378247,-0.373271 -0.378247,-1.020273 0,-0.786356 0.557417,-1.214373 0.557417,-0.428016 1.582666,-0.428016 0.507648,0 0.955572,0.07465 0.447925,0.07465 0.826172,0.223962 z"
         style="stroke-width:0.26458332px"
         id="path7150"
         inkscape:connector-curvature="0" />
      <path
         d="m 53.493328,94.357629 q -1.109858,0 -1.537874,0.253824 -0.428017,0.253823 -0.428017,0.865987 0,0.48774 0.318524,0.776402 0.323501,0.283686 0.875941,0.283686 0.761472,0 1.21935,-0.53751 0.462856,-0.542486 0.462856,-1.438335 v -0.204054 z m 1.826536,-0.378248 v 3.180264 h -0.915756 v -0.846079 q -0.313548,0.507647 -0.78138,0.751517 -0.467832,0.238893 -1.144696,0.238893 -0.856033,0 -1.363681,-0.477786 -0.502671,-0.482763 -0.502671,-1.289027 0,-0.940641 0.627095,-1.418427 0.632071,-0.477786 1.881282,-0.477786 h 1.284051 v -0.08958 q 0,-0.632072 -0.418063,-0.97548 -0.413086,-0.348386 -1.164604,-0.348386 -0.477786,0 -0.930687,0.11447 -0.452902,0.114469 -0.870965,0.343408 v -0.846079 q 0.502671,-0.194101 0.97548,-0.288663 0.472809,-0.09954 0.920734,-0.09954 1.209396,0 1.806629,0.627094 0.597232,0.627094 0.597232,1.90119 z"
         style="stroke-width:0.26458332px"
         id="path7152"
         inkscape:connector-curvature="0" />
      <path
         d="m 57.2111,91.585474 h 0.915757 v 5.67371 c 0,0.710043 -0.136036,1.224327 -0.408109,1.542851 -0.268755,0.318524 -0.703407,0.477786 -1.303958,0.477786 h -0.348385 v -0.776403 h 0.243869 c 0.348386,0 0.58562,-0.08129 0.711703,-0.24387 0.126082,-0.159262 0.189123,-0.492717 0.189123,-1.000364 z"
         style="stroke-width:0.26458332px"
         id="path7154"
         inkscape:connector-curvature="0"
         sodipodi:nodetypes="ccscsccscsc" />
      <path
         d="m 62.197993,92.227499 q -0.736587,0 -1.164604,0.577325 -0.428016,0.572348 -0.428016,1.572712 0,1.000365 0.42304,1.57769 0.428016,0.572348 1.16958,0.572348 0.73161,0 1.159627,-0.577325 0.428016,-0.577325 0.428016,-1.572713 0,-0.99041 -0.428016,-1.567735 -0.428017,-0.582302 -1.159627,-0.582302 z m 0,-0.776402 q 1.194465,0 1.876306,0.776402 0.68184,0.776402 0.68184,2.150037 0,1.368659 -0.68184,2.150038 -0.681841,0.776402 -1.876306,0.776402 -1.199442,0 -1.881283,-0.776402 -0.676863,-0.781379 -0.676863,-2.150038 0,-1.373635 0.676863,-2.150037 0.681841,-0.776402 1.881283,-0.776402 z"
         style="stroke-width:0.26458332px"
         id="path7156"
         inkscape:connector-curvature="0" />
      <path
         d="m 66.174566,94.959838 v -3.374364 h 0.915756 V 94.925 q 0,0.791333 0.308571,1.189488 0.30857,0.393178 0.92571,0.393178 0.741564,0 1.169581,-0.472809 0.432993,-0.472809 0.432993,-1.289027 v -3.160356 h 0.915757 v 5.574171 h -0.915757 v -0.856033 q -0.333454,0.507647 -0.776402,0.756494 -0.437971,0.24387 -1.020272,0.24387 -0.96055,0 -1.458243,-0.597232 -0.497694,-0.597233 -0.497694,-1.746906 z"
         style="stroke-width:0.26458332px"
         id="path7158"
         inkscape:connector-curvature="0" />
    </g>
  </g>
</svg>
